<svg xmlns="http://www.w3.org/2000/svg" fill="none" viewBox="0 0 14 14" id="Delete-1--Streamline-Flex" height="14" width="14"><desc>Delete 1 Streamline Icon: https://streamlinehq.com</desc><g id="delete-1--remove-add-button-buttons-delete-cross-x-mathematics-multiply-math"><path id="Union" fill="#e866ec" fill-rule="evenodd" d="M1.64698 13.7514c-0.41313 0.3657 -1.04015 0.3222 -1.400473 -0.0971 -0.360324 -0.4192 -0.3175088 -1.0556 0.09563 -1.4213C2.14726 10.6353 3.89623 8.99343 5.59455 7.30194 3.82708 5.483 2.11373 3.60771 0.448369 1.66986 0.0880458 1.25058 0.130861 0.614237 0.544 0.248556c0.413139 -0.365681 1.04015 -0.3222291 1.40048 0.097052C3.58066 2.24952 5.26377 4.09189 6.99995 5.87896 8.73612 4.09189 10.4192 2.24952 12.0554 0.345608c0.3603 -0.4192811 0.9874 -0.462733 1.4005 -0.097052 0.4131 0.365681 0.4559 1.002024 0.0956 1.421304 -1.6653 1.93785 -3.3787 3.81314 -5.14616 5.63208C10.1037 8.99343 11.8526 10.6353 13.6578 12.233c0.4131 0.3657 0.4559 1.0021 0.0956 1.4213 -0.3603 0.4193 -0.9874 0.4628 -1.4005 0.0971 -1.8397 -1.6284 -3.62221 -3.302 -5.35295 -5.02638C5.2692 10.4494 3.48671 12.123 1.64698 13.7514Z" clip-rule="evenodd" stroke-width="1"></path></g></svg>