<svg xmlns="http://www.w3.org/2000/svg" fill="none" viewBox="0 0 14 14" id="Reset-Clock--Streamline-Flex" height="14" width="14"><desc>Reset Clock Streamline Icon: https://streamlinehq.com</desc><g id="reset-clock--timer-countdown-clock"><path id="Union" fill="#e866ec" fill-rule="evenodd" d="M2.90533 2.90533C2.02135 3.78931 1.5 5.13805 1.5 7c0 1.86195 0.52135 3.2107 1.40533 4.0947C3.78931 11.9786 5.13805 12.5 7 12.5c1.86195 0 3.2107 -0.5214 4.0947 -1.4053C11.9786 10.2107 12.5 8.86195 12.5 7c0 -0.41421 0.3358 -0.75 0.75 -0.75s0.75 0.33579 0.75 0.75c0 2.13805 -0.6036 3.9143 -1.8447 5.1553C10.9143 13.3964 9.13805 14 7 14c-2.13805 0 -3.91431 -0.6036 -5.15533 -1.8447C0.603647 10.9143 0 9.13805 0 7c0 -2.13805 0.603648 -3.91431 1.84467 -5.15533C3.08569 0.603647 4.86195 0 7 0c1.56862 0 2.94206 0.325199 4.0516 0.987095 -0.1157 -0.386542 0.096 -0.797698 0.4814 -0.9261874 0.393 -0.1309858 0.8177 0.0813844 0.9487 0.4743414 0.2562 0.768421 0.2562 1.754151 0 2.522591 -0.0746 0.22395 -0.2504 0.39969 -0.4743 0.47434 -0.7684 0.25612 -1.7542 0.25612 -2.52258 -0.00002 -0.39296 -0.13099 -0.60533 -0.55573 -0.47434 -0.94869 0.13098 -0.39295 0.55572 -0.60532 0.94868 -0.47434 0.01624 0.00541 0.03271 0.01063 0.04944 0.01566C9.21563 1.72264 8.21736 1.5 7 1.5c-1.86195 0 -3.21069 0.52135 -4.09467 1.40533Zm4.12714 0.24604c0.41421 0 0.75 0.33578 0.75 0.75v2.75287l1.58886 1.61698c0.29032 0.29545 0.28615 0.7703 -0.0093 1.06061 -0.29545 0.29032 -0.7703 0.28615 -1.06062 -0.0093l-1.8039 -1.83581c-0.13782 -0.14026 -0.21504 -0.32903 -0.21504 -0.52566V3.90137c0 -0.41422 0.33579 -0.75 0.75 -0.75Z" clip-rule="evenodd" stroke-width="1"></path></g></svg>